<svg width="868" height="55" viewBox="0 0 868 55" fill="none" xmlns="http://www.w3.org/2000/svg">
<path d="M302.013 31.0828C295.179 28.9055 297.233 18.7429 304.376 19.3905L439.9 31.6776C446.335 32.261 448.96 23.6142 443.287 20.5211V20.5211C437.302 17.2581 440.608 8.12836 447.295 9.45404L557.703 31.3437C563.023 32.3984 566.901 26.4141 563.765 21.9891L558.918 15.1493C555.695 10.6002 559.877 4.49771 565.283 5.86278L652.883 27.9836C659.036 29.5374 663.074 21.7213 658.246 17.602L642.358 4.04472C638.182 0.482184 640.586 -6.3524 646.072 -6.51684L821.136 -11.7643C825.094 -11.8829 828.08 -8.20236 827.147 -4.35386L811.209 61.4131C810.557 64.1046 808.147 66 805.378 66H0L303.839 43.8068C310.425 43.3257 311.515 34.1106 305.223 32.1059L302.013 31.0828Z" fill="#F921A3"/>
<path d="M367.013 31.0828C360.179 28.9055 362.233 18.7429 369.376 19.3905L504.9 31.6776C511.335 32.261 513.96 23.6142 508.287 20.5211V20.5211C502.302 17.2581 505.608 8.12836 512.295 9.45404L622.703 31.3437C628.023 32.3984 631.901 26.4141 628.765 21.9891L623.918 15.1493C620.695 10.6002 624.877 4.49771 630.283 5.86278L717.883 27.9836C724.036 29.5374 728.074 21.7213 723.246 17.602L707.358 4.04472C703.182 0.482184 705.586 -6.3524 711.072 -6.51684L886.136 -11.7643C890.094 -11.8829 893.08 -8.20236 892.147 -4.35386L876.209 61.4131C875.557 64.1046 873.147 66 870.378 66H65L368.839 43.8068C375.425 43.3257 376.515 34.1106 370.223 32.1059L367.013 31.0828Z" fill="#FF5CBE"/>
<path d="M452.013 42.0828C445.179 39.9055 447.233 29.7429 454.376 30.3905L589.9 42.6776C596.335 43.261 598.96 34.6142 593.287 31.5211V31.5211C587.302 28.258 590.608 19.1284 597.295 20.454L707.703 42.3437C713.023 43.3984 716.901 37.4141 713.765 32.9891L708.918 26.1493C705.695 21.6002 709.877 15.4977 715.283 16.8628L802.883 38.9836C809.036 40.5374 813.074 32.7213 808.246 28.602L792.358 15.0447C788.182 11.4822 790.586 4.6476 796.072 4.48316L971.136 -0.764283C975.094 -0.882925 978.08 2.79764 977.147 6.64614L961.209 72.4131C960.557 75.1046 958.147 77 955.378 77H150L453.839 54.8068C460.425 54.3257 461.515 45.1106 455.223 43.1059L452.013 42.0828Z" fill="#FF88CF"/>
</svg>
