<svg width="809" height="316" viewBox="0 0 809 316" fill="none" xmlns="http://www.w3.org/2000/svg">
<g filter="url(#filter0_d_54_489)">
<path d="M482.5 23C579.637 23 624.467 110.81 670 120.5C715.533 130.19 826.905 125.302 789 127.5C751.096 129.698 647.764 240.476 647 251.686C646.236 262.897 598.5 315.436 515 315.436C431.5 315.436 407.5 292.436 298.5 277.436C189.5 262.436 139.5 315.436 75.8648 251.686C12.2296 187.936 -42.0304 111.47 48 40.5C138.03 -30.4699 222 17.5 313 17.5C404 17.5 385.363 23 482.5 23Z" fill="#39D7FF"/>
</g>
<defs>
<filter id="filter0_d_54_489" x="0.468689" y="0.65094" width="808.265" height="314.785" filterUnits="userSpaceOnUse" color-interpolation-filters="sRGB">
<feFlood flood-opacity="0" result="BackgroundImageFix"/>
<feColorMatrix in="SourceAlpha" type="matrix" values="0 0 0 0 0 0 0 0 0 0 0 0 0 0 0 0 0 0 127 0" result="hardAlpha"/>
<feOffset dx="12" dy="-1"/>
<feComposite in2="hardAlpha" operator="out"/>
<feColorMatrix type="matrix" values="0 0 0 0 0 0 0 0 0 0.554462 0 0 0 0 0.815385 0 0 0 1 0"/>
<feBlend mode="normal" in2="BackgroundImageFix" result="effect1_dropShadow_54_489"/>
<feBlend mode="normal" in="SourceGraphic" in2="effect1_dropShadow_54_489" result="shape"/>
</filter>
</defs>
</svg>
