<svg width="309" height="332" viewBox="0 0 309 332" fill="none" xmlns="http://www.w3.org/2000/svg">
<path d="M188.998 271.767C187.3 271.767 185.702 270.727 185.075 269.044C168.072 223.5 181.174 163.186 181.739 160.64C182.242 158.384 184.481 156.962 186.733 157.463C188.988 157.964 190.411 160.199 189.912 162.457C189.778 163.058 176.793 222.923 192.917 266.116C193.726 268.281 192.625 270.691 190.458 271.501C189.978 271.682 189.484 271.767 188.998 271.767Z" fill="#445D66"/>
<path d="M199.486 149.266C199.486 156.711 193.451 162.745 186.006 162.745C178.561 162.745 172.527 156.709 172.527 149.266C172.527 141.821 178.563 135.788 186.006 135.788C193.449 135.788 199.486 141.821 199.486 149.266Z" fill="#7E9A9E"/>
<path d="M174.471 286.723C174.471 277.467 181.975 269.964 191.231 269.964C200.486 269.964 207.99 277.467 207.99 286.723H174.471Z" fill="#7E9A9E"/>
<path d="M248.731 122.112C247.81 122.112 247.026 121.406 246.947 120.471C246.862 119.486 247.593 118.617 248.579 118.532C249.628 118.438 274.326 115.934 276.834 87.8079C276.921 86.8205 277.797 86.0894 278.781 86.1799C279.768 86.2684 280.496 87.139 280.409 88.1264C277.63 119.301 249.174 122.08 248.888 122.105C248.835 122.11 248.784 122.112 248.731 122.112Z" fill="#445D66"/>
<path d="M285.386 83.7284C285.386 87.465 282.357 90.4932 278.621 90.4932C274.884 90.4932 271.856 87.465 271.856 83.7284C271.856 79.9917 274.884 76.9636 278.621 76.9636C282.357 76.9636 285.386 79.9917 285.386 83.7284Z" fill="#9B2927"/>
<path d="M227.87 168.328C246.745 168.328 262.046 153.027 262.046 134.152C262.046 115.277 246.745 99.9754 227.87 99.9754C208.995 99.9754 193.694 115.277 193.694 134.152C193.694 153.027 208.995 168.328 227.87 168.328Z" fill="#5D7077"/>
<g opacity="0.5">
<path d="M240.604 102.84C248.603 109.096 253.753 118.828 253.753 129.771C253.753 148.646 238.452 163.947 219.577 163.947C215.075 163.947 210.781 163.067 206.845 161.486C212.645 166.022 219.939 168.731 227.872 168.731C246.747 168.731 262.048 153.431 262.048 134.555C262.046 120.183 253.171 107.892 240.604 102.84Z" fill="#5D7077"/>
</g>
<path d="M255.784 271.767C254.087 271.767 252.489 270.727 251.861 269.044C234.859 223.5 247.961 163.186 248.526 160.64C249.027 158.385 251.264 156.962 253.519 157.463C255.775 157.964 257.198 160.199 256.698 162.457C256.565 163.058 243.578 222.923 259.704 266.116C260.512 268.283 259.412 270.693 257.247 271.503C256.764 271.682 256.271 271.767 255.784 271.767Z" fill="#445D66"/>
<path d="M266.273 149.267C266.273 156.712 260.238 162.745 252.793 162.745C245.348 162.745 239.314 156.71 239.314 149.267C239.314 141.821 245.349 135.788 252.793 135.788C260.238 135.788 266.273 141.821 266.273 149.267Z" fill="#7E9A9E"/>
<path d="M239.024 286.723C239.024 277.467 246.527 269.964 255.783 269.964C265.039 269.964 272.542 277.467 272.542 286.723H239.024Z" fill="#7E9A9E"/>
<path d="M113.521 332C111.337 332 109.287 330.664 108.478 328.499C85.8567 267.902 103.291 187.635 104.044 184.249C104.689 181.347 107.564 179.518 110.464 180.164C113.366 180.808 115.196 183.684 114.551 186.584C114.374 187.383 97.0704 267.16 118.563 324.734C119.603 327.519 118.188 330.619 115.403 331.659C114.781 331.891 114.146 332 113.521 332Z" fill="#445D66"/>
<path d="M107.548 204.479C118.075 204.479 126.61 195.945 126.61 185.417C126.61 174.89 118.075 166.355 107.548 166.355C97.02 166.355 88.4857 174.89 88.4857 185.417C88.4857 195.945 97.02 204.479 107.548 204.479Z" fill="#9BC1BC"/>
<path d="M210.712 204.643C237.529 177.826 237.529 134.348 210.712 107.531C183.896 80.7145 140.417 80.7145 113.601 107.531C86.7839 134.348 86.7839 177.826 113.601 204.643C140.417 231.46 183.896 231.46 210.712 204.643Z" fill="#7E9A9E"/>
<g opacity="0.5">
<path d="M207.666 104.681C215.177 115.691 219.575 128.997 219.575 143.331C219.575 181.255 188.83 212 150.906 212C133.446 212 117.518 205.472 105.4 194.737C117.763 212.857 138.57 224.757 162.16 224.757C200.084 224.757 230.829 194.012 230.829 156.088C230.83 135.624 221.869 117.263 207.666 104.681Z" fill="#5D7077"/>
</g>
<path d="M216.981 332C214.798 332 212.746 330.664 211.938 328.499C189.317 267.902 206.75 187.635 207.504 184.249C208.149 181.347 211.026 179.518 213.924 180.164C216.826 180.808 218.656 183.684 218.011 186.584C217.834 187.383 200.53 267.16 222.023 324.734C223.063 327.519 221.648 330.619 218.863 331.659C218.243 331.891 217.606 332 216.981 332Z" fill="#445D66"/>
<path d="M212.757 204.479C223.285 204.479 231.819 195.945 231.819 185.417C231.819 174.89 223.285 166.355 212.757 166.355C202.23 166.355 193.695 174.89 193.695 185.417C193.695 195.945 202.23 204.479 212.757 204.479Z" fill="#9BC1BC"/>
<path d="M86.0206 331.401C86.0206 319.513 95.659 309.874 107.547 309.874C119.436 309.874 129.074 319.513 129.074 331.401H86.0206Z" fill="#7E9A9E"/>
<path d="M191.231 331.401C191.231 319.513 200.869 309.874 212.758 309.874C224.646 309.874 234.284 319.513 234.284 331.401H191.231Z" fill="#7E9A9E"/>
<path d="M89.7536 12.6761C84.1872 5.00875 59.8378 13.3111 35.3678 31.218C10.8978 49.1268 -4.42567 69.8601 1.14255 77.5275C6.70889 85.1949 31.0583 76.8925 55.5283 58.9856C79.9983 41.0787 95.3199 20.3435 89.7536 12.6761Z" fill="#36C9C6"/>
<g opacity="0.5">
<path d="M85.2107 10.5825C86.6597 19.665 72.0316 38.1259 49.9472 54.2879C29.749 69.0705 9.64496 77.2956 0.106445 75.4094C0.262845 76.3911 0.602031 77.2655 1.14472 78.0136C6.71105 85.6809 31.0605 77.3785 55.5305 59.4717C80.0005 41.5648 95.3239 20.8295 89.7576 13.1622C88.7815 11.8243 87.2269 10.982 85.2107 10.5825Z" fill="#5D7077"/>
</g>
<path d="M177.27 127.02C149.022 126.598 120.87 124.338 92.9796 120.261C80.7974 118.48 66.9626 109.897 64.121 97.0776C61.0702 83.3163 74.4132 71.7427 70.3657 56.6472C66.9437 43.8827 64.7447 35.7537 72.218 24.2837C78.6304 14.4456 87.0421 7.6243 99.4184 7.10988C122.92 6.37876 146.308 4.11944 169.452 0.350762C184.055 -2.15164 197.342 8.99611 199.286 26.121C201.74 49.3812 204.195 72.6434 206.649 95.9036C208.597 113.004 195.42 127.415 177.27 127.02Z" fill="#9BC1BC"/>
<path d="M221.075 93.324C223.999 90.1866 228.192 83.6856 226.892 72.9788L221.657 29.8878C221.657 26.2472 218.686 22.8592 215.754 20.8995C215.754 20.8995 203.096 11.6587 202.978 11.572C193.055 4.32673 189.678 19.8895 189.529 26.6429C189.218 40.7302 195.977 54.1147 194.947 68.4187C194.035 81.0834 184.4 90.294 181.709 102.329C179.565 111.921 188.542 129.189 199.479 118.324L204.723 112.056L221.075 93.324Z" fill="#7E9A9E"/>
<path d="M179.75 2.88894C185.254 -4.76901 209.607 3.32233 234.143 20.9597C258.679 38.5971 274.106 59.1044 268.602 66.7623C263.098 74.4203 238.745 66.3289 214.209 48.6915C189.673 31.0541 174.246 10.5469 179.75 2.88894Z" fill="#36C9C6"/>
<g opacity="0.5">
<path d="M217.167 45.0622C194.872 29.034 180.102 10.6429 181.719 1.66968C180.916 2.11061 180.253 2.67591 179.75 3.375C174.246 11.033 189.673 31.5383 214.209 49.1776C238.745 66.8169 263.098 74.9064 268.602 67.2484C269.105 66.5493 269.429 65.7409 269.591 64.8384C261.602 69.2307 239.463 61.0885 217.167 45.0622Z" fill="#5D7077"/>
</g>
<g opacity="0.5">
<path d="M70.921 65.7431L194.946 68.4208L190 83.6877L67.3804 77.9913L70.921 65.7431Z" fill="#CCE5E1"/>
</g>
<path d="M127.972 81.2963C127.972 84.4338 122.662 86.9776 116.112 86.9776C109.562 86.9776 104.252 84.4338 104.252 81.2963C104.252 78.1589 109.562 75.6151 116.112 75.6151C122.662 75.6151 127.972 78.1589 127.972 81.2963Z" fill="#9B2927"/>
<path d="M84.7904 66.0425C84.7904 66.0425 76.5483 44.284 82.3276 34.8265C88.1068 25.3671 84.7904 28.3651 84.7904 28.3651L165.448 24.5701C165.448 24.5701 170.53 23.5544 170.778 34.8265C171.027 46.0986 170.778 67.8985 170.778 67.8985L84.7904 66.0425Z" fill="#17282D"/>
<path d="M286.976 69.7998C294.17 71.2677 297.875 78.5337 294.387 85.1666C293.313 87.2092 296.409 89.0238 297.485 86.9774C301.973 78.4414 297.507 68.2942 287.931 66.3383C285.676 65.8804 284.711 69.3382 286.976 69.7998Z" fill="#E6EDEF"/>
<path d="M299.066 66.589C302.829 67.3616 305.574 71.0831 304.787 74.9423C304.329 77.1959 307.785 78.1607 308.246 75.8957C309.403 70.2163 305.795 64.3146 300.019 63.1294C297.766 62.6677 296.801 66.1255 299.066 66.589Z" fill="#E6EDEF"/>
</svg>
