<svg width="177" height="133" viewBox="0 0 177 133" fill="none" xmlns="http://www.w3.org/2000/svg">
<path d="M36.3197 93.8448C36.3197 77.1875 49.8231 63.6841 66.4804 63.6841H107.042C123.937 63.6841 137.634 77.3804 137.634 94.2756V94.2756C137.634 115.531 120.403 132.762 99.1475 132.762H75.2367C53.7434 132.762 36.3197 115.338 36.3197 93.8448V93.8448Z" fill="#9BC1BC"/>
<path d="M51.0563 94.9993C51.0563 87.8779 56.8293 82.1048 63.9508 82.1048H110.003C117.124 82.1048 122.897 87.8779 122.897 94.9993V94.9993C122.897 100.086 118.773 104.21 113.687 104.21H60.2666C55.1799 104.21 51.0563 100.086 51.0563 94.9993V94.9993Z" fill="#17282D"/>
<path d="M119.349 61.9756C123.824 57.8252 138.232 66.0865 151.53 80.4263C164.827 94.7662 171.978 109.756 167.503 113.907C163.027 118.057 148.62 109.796 135.322 95.4558C122.025 81.1159 114.874 66.126 119.349 61.9756Z" fill="#36C9C6"/>
<g opacity="0.5">
<path d="M137.665 93.5338C125.582 80.5025 118.576 66.9393 120.755 61.4552C120.189 61.6318 119.696 61.9052 119.287 62.284C114.811 66.4343 121.963 81.4231 135.26 95.7642C148.557 110.105 162.965 118.365 167.44 114.215C167.849 113.836 168.159 113.365 168.377 112.813C162.745 114.573 149.748 106.564 137.665 93.5338Z" fill="#5D7077"/>
</g>
<path d="M52.2559 64.5308C48.4013 60.5882 35.0361 67.4057 22.4042 79.7571C9.77232 92.1084 2.65778 105.318 6.51238 109.26C10.367 113.203 23.7323 106.386 36.3641 94.0343C48.996 81.6829 56.1105 68.4734 52.2559 64.5308Z" fill="#36C9C6"/>
<g opacity="0.5">
<path d="M34.3352 92.1965C45.8135 80.9722 52.7339 69.0437 51.0107 63.9991C51.5134 64.1834 51.9465 64.4519 52.2988 64.8117C56.1533 68.7543 49.0386 81.9628 36.4069 94.3152C23.7752 106.668 10.4098 113.484 6.55519 109.541C6.20293 109.182 5.94454 108.743 5.77154 108.235C10.7757 110.072 22.8568 103.42 34.3352 92.1965Z" fill="#5D7077"/>
</g>
<path d="M118.165 104.67C118.165 104.67 120.007 102.828 122.77 109.736C124.792 114.79 112.549 113.23 107.113 112.96C101.677 112.689 87.4371 116.644 87.4371 116.644C87.4371 116.644 74.0821 114.341 67.6348 112.96C61.1876 111.578 47.3719 114.802 50.0086 109.736C52.6453 104.67 55.0741 104.67 55.0741 104.67H118.165Z" fill="#CCE5E1"/>
<path d="M93.2465 116.466C93.2465 118.148 90.3997 119.512 86.888 119.512C83.3764 119.512 80.5295 118.148 80.5295 116.466C80.5295 114.784 83.3764 113.42 86.888 113.42C90.3997 113.42 93.2465 114.784 93.2465 116.466Z" fill="#9B2927"/>
<path d="M94.7078 96.1165C94.3159 96.1165 93.93 95.9377 93.6774 95.5993C93.2551 95.0305 93.3723 94.2274 93.9411 93.8051L99.4247 89.7267C99.8914 89.3802 100.533 89.3893 100.987 89.7509L106.128 93.8303C106.682 94.2708 106.775 95.077 106.335 95.6326C105.894 96.1882 105.089 96.2802 104.534 95.8397L100.164 92.3735L95.4706 95.864C95.2423 96.0337 94.9745 96.1165 94.7078 96.1165Z" fill="#E6EDEF"/>
<path d="M68.9188 96.1165C68.5268 96.1165 68.1409 95.9377 67.8883 95.5993C67.4661 95.0305 67.5832 94.2274 68.152 93.8051L73.6356 89.7267C74.1024 89.3802 74.7439 89.3893 75.1975 89.7509L80.3386 93.8303C80.8933 94.2708 80.9862 95.077 80.5457 95.6326C80.1053 96.1882 79.3001 96.2802 78.7445 95.8397L74.3751 92.3735L69.6815 95.864C69.4532 96.0337 69.1855 96.1165 68.9188 96.1165Z" fill="#E6EDEF"/>
<path d="M127.227 45.2268C127.24 46.1738 127.188 47.0841 127.065 47.9367C125.793 56.7203 107.63 57.3303 101.405 58.2186C101.046 58.2696 100.688 58.3206 100.327 58.3701C94.3643 59.1854 88.2867 59.724 82.2241 59.7281C75.828 59.7333 69.4477 59.1439 63.2379 57.6571C61.901 57.3373 60.248 56.9912 58.5878 56.4944C55.7552 55.6509 52.9091 54.3776 51.6144 52.0912C51.1659 51.3008 50.9359 50.3966 50.86 49.4316C50.8509 49.3246 50.8444 49.2193 50.8396 49.1116C50.8244 48.8049 50.8221 48.4914 50.8363 48.1747C50.9385 45.3712 51.9949 42.269 52.5906 39.9896C54.2999 33.4384 57.748 27.1458 62.1046 21.9876C65.0418 18.5078 68.5419 15.7665 72.3944 13.6686C77.6553 10.803 83.5754 9.14002 89.6222 8.44286C102.337 6.97749 114.188 12.9455 120.628 23.9896C123.707 29.2754 127.143 38.3036 127.227 45.2268Z" fill="#C9203C"/>
<path d="M147.506 61.0207C147.137 65.8525 136.881 67.355 133.201 68.5142C113.357 74.7692 92.986 75.1578 72.4236 74.8604C69.9677 74.8251 67.5078 74.7809 65.0478 74.7342C59.5842 74.6303 30.6466 73.0758 30.7804 63.7419C30.7841 63.4343 30.8203 63.1189 30.8887 62.795C31.7439 58.7956 36.1914 55.0736 41.0445 52.3208C43.2076 51.0936 45.4479 50.058 47.487 49.2783L47.4894 49.2779C48.4715 48.9017 49.4061 48.5845 50.2634 48.3365C50.4584 48.2782 50.6495 48.225 50.8363 48.1751C51.0207 48.1255 51.2013 48.0795 51.3748 48.0367C53.3328 47.5633 54.7967 48.153 57.0356 48.246C57.4909 48.2648 57.9452 48.2665 58.399 48.252C62.4298 48.1349 66.3312 46.8768 70.3562 46.9178C75.0905 46.969 79.6579 46.4025 84.3947 45.7842C91.2453 44.8917 98.1038 43.9886 104.99 43.4309C105.314 43.4054 105.635 43.3798 105.959 43.3542C109.415 43.0874 112.878 42.9139 116.349 42.874C120.286 42.8294 123.789 43.8807 127.228 45.228C129.734 46.2064 132.208 47.3424 134.789 48.3218C138.944 49.8994 147.921 55.5894 147.506 61.0207Z" fill="#C9203C"/>
<path d="M110.738 27.1042C110.578 32.6064 108.458 38.5392 104.989 43.4298C104.054 44.7543 103.018 46.0002 101.898 47.1422C98.959 50.1343 95.4776 52.9953 91.6756 55.3379C88.6894 57.1838 85.5034 58.7073 82.2242 59.7281C76.3829 61.5489 70.2452 61.7741 64.4164 59.3529C62.3961 58.5135 60.4179 57.5703 58.5879 56.4944C55.3565 54.5958 52.5865 52.287 50.8601 49.4316C50.7982 49.3266 50.7359 49.2214 50.6764 49.1161C50.5295 48.8593 50.3924 48.6009 50.2634 48.3361C50.4585 48.2778 50.6495 48.2246 50.8363 48.1747C50.9386 45.3712 51.995 42.269 52.5907 39.9896C54.3 33.4384 57.7481 27.1458 62.1047 21.9876C65.0419 18.5078 68.542 15.7665 72.3945 13.6686C77.3818 11.4287 82.9955 10.0972 88.0549 9.84241C98.6962 9.30856 111.027 17.1294 110.738 27.1042Z" fill="#EA3C55"/>
<path d="M94.1822 72.8595C87.6988 74.3415 80.7631 73.698 74.1791 74.4996C73.5811 74.5739 72.9865 74.64 72.3946 74.6962C69.9317 74.6209 67.4643 74.5346 64.9973 74.4479C59.8504 74.2618 33.9241 72.3716 30.7803 63.7415C30.784 63.4339 30.8202 63.1185 30.8886 62.7946C31.7438 58.7952 36.1914 55.0732 41.0444 52.3204C43.2075 51.0932 45.4478 50.0576 47.4869 49.2779L47.4893 49.2775C47.9178 49.2549 48.3432 49.2285 48.7639 49.2024C49.4043 49.1619 50.0397 49.1345 50.6763 49.1161C50.7314 49.1137 50.7845 49.114 50.8399 49.1115C50.8714 49.1108 50.9025 49.1102 50.934 49.1095C54.244 49.0305 57.5204 49.2518 60.8077 49.6332C65.0821 50.1304 69.3746 50.9095 73.7807 51.6876C78.2412 52.4731 82.6174 53.5201 87.0153 54.665C88.3297 55.0081 89.7532 55.1482 91.1771 55.2906C91.342 55.3072 91.5086 55.3216 91.6735 55.3382L91.6758 55.3378C93.4115 55.5098 95.1323 55.7185 96.6467 56.333C97.2945 56.5957 98.0358 56.948 98.7853 57.3763C99.3038 57.6736 99.829 58.0061 100.328 58.3701L100.33 58.3697C101.516 59.2308 102.571 60.2692 103.123 61.4111C106.02 67.4155 98.9653 71.7644 94.1822 72.8595Z" fill="#EA3C55"/>
<path d="M51.8919 49.9202C63.0242 55.2609 75.6699 56.7 87.8877 56.6177C94.1929 56.5752 100.563 56.1884 106.786 55.1583C113.493 54.0482 120.195 52.3353 125.902 48.5012C126.538 48.0743 125.763 47.1702 125.133 47.5941C119.48 51.3914 112.78 52.9608 106.153 54.0576C100.052 55.0672 93.7918 55.3942 87.614 55.4361C75.6256 55.5172 63.2201 54.0414 52.3045 48.8045C51.6116 48.4716 51.207 49.5915 51.8919 49.9202Z" fill="#9E1C29"/>
</svg>
