<svg width="183" height="75" viewBox="0 0 183 75" fill="none" xmlns="http://www.w3.org/2000/svg">
<path d="M37.437 34.8859C37.437 17.7651 51.3162 3.79747 68.437 3.79747H110.867C127.988 3.79747 141.867 17.6766 141.867 34.7975V36C141.867 57.5391 124.406 75 102.867 75H77.437C55.3456 75 37.437 56.9773 37.437 34.8859Z" fill="#9BC1BC"/>
<path d="M52.6268 36.0759C52.6268 28.7354 58.5775 22.7848 65.918 22.7848H113.386C120.727 22.7848 126.677 28.7354 126.677 36.0759C126.677 41.3191 122.427 45.5696 117.184 45.5696H62.1205C56.8773 45.5696 52.6268 41.3191 52.6268 36.0759Z" fill="#17282D"/>
<path d="M123.02 2.03638C127.633 -2.24165 142.484 6.27369 156.191 21.0546C169.897 35.8356 177.268 51.2867 172.655 55.5647C168.042 59.8427 153.191 51.3274 139.485 36.5464C125.778 21.7655 118.408 6.31441 123.02 2.03638Z" fill="#36C9C6"/>
<g opacity="0.5">
<path d="M141.9 34.5653C129.445 21.1331 122.224 7.15272 124.469 1.49994C123.886 1.68193 123.377 1.9637 122.956 2.35415C118.343 6.63218 125.714 22.082 139.42 36.8642C153.127 51.6464 167.978 60.1605 172.591 55.8825C173.012 55.492 173.331 55.0064 173.557 54.4377C167.751 56.2515 154.355 47.9961 141.9 34.5653Z" fill="#5D7077"/>
</g>
<path d="M53.8633 4.67026C49.8901 0.606381 36.1137 7.63359 23.0933 20.3649C10.0728 33.0961 2.73945 46.712 6.71261 50.7758C10.6858 54.8397 24.4622 47.8125 37.4826 35.0812C50.503 22.35 57.8364 8.73415 53.8633 4.67026Z" fill="#36C9C6"/>
<g opacity="0.5">
<path d="M35.3912 33.1869C47.2225 21.6174 54.3558 9.32192 52.5796 4.1222C53.0978 4.31218 53.5442 4.58889 53.9073 4.95982C57.8804 9.0237 50.5469 22.6384 37.5266 35.3708C24.5064 48.1032 10.7298 55.1293 6.75662 51.0654C6.39353 50.6945 6.12719 50.2422 5.94887 49.7191C11.107 51.6122 23.5596 44.7553 35.3912 33.1869Z" fill="#5D7077"/>
</g>
<path d="M121.8 46.0443C121.8 46.0443 123.699 44.1456 126.547 51.2658C128.631 56.475 116.011 54.8675 110.408 54.5886C104.804 54.3097 90.1269 58.3861 90.1269 58.3861C90.1269 58.3861 76.3611 56.0127 69.7155 54.5886C63.0699 53.1646 48.8293 56.4873 51.5471 51.2658C54.2649 46.0443 56.7684 46.0443 56.7684 46.0443H121.8Z" fill="#CCE5E1"/>
<path d="M96.1148 58.2029C96.1148 59.9367 93.1803 61.3424 89.5607 61.3424C85.941 61.3424 83.0066 59.9367 83.0066 58.2029C83.0066 56.469 85.941 55.0633 89.5607 55.0633C93.1803 55.0633 96.1148 56.469 96.1148 58.2029Z" fill="#9B2927"/>
<path d="M97.6211 37.2275C97.2171 37.2275 96.8193 37.0432 96.559 36.6944C96.1237 36.1081 96.2445 35.2803 96.8308 34.845L102.483 30.6412C102.964 30.284 103.625 30.2934 104.093 30.6661L109.392 34.871C109.964 35.325 110.06 36.156 109.606 36.7287C109.152 37.3015 108.322 37.3962 107.749 36.9422L103.245 33.3694L98.4073 36.9672C98.172 37.1421 97.896 37.2275 97.6211 37.2275Z" fill="#E6EDEF"/>
<path d="M71.0388 37.2275C70.6348 37.2275 70.237 37.0432 69.9767 36.6944C69.5414 36.1081 69.6622 35.2803 70.2485 34.845L75.9008 30.6412C76.3819 30.284 77.0431 30.2934 77.5107 30.6661L82.81 34.871C83.3817 35.325 83.4775 36.156 83.0234 36.7287C82.5694 37.3015 81.7395 37.3962 81.1668 36.9422L76.663 33.3694L71.825 36.9672C71.5897 37.1421 71.3138 37.2275 71.0388 37.2275Z" fill="#E6EDEF"/>
<path d="M93.5368 49.5535C93.863 51.9873 94.4044 54.1432 95.0009 55.9662C96.3647 60.135 101.777 63.1935 108.251 63.4704C112.96 63.6719 117.544 63.6287 121.523 63.4863C131.259 63.1379 139.283 58.3156 140.633 51.9685C141.237 49.1281 141.403 46.5204 141.447 45.1759C141.467 44.5726 141.927 44.0126 142.684 43.6711L144.289 42.9467C145.064 42.5973 145.526 42.0195 145.526 41.4021V38.9586C145.526 38.2631 144.939 37.6259 144.004 37.3008C141 36.2568 133.625 34.1772 122.541 34.1772C107.743 34.1772 102.709 37.2863 89.8517 37.2863C76.9944 37.2863 71.9606 34.1772 57.1626 34.1772C46.0788 34.1772 38.7037 36.2568 35.6996 37.3008C34.7641 37.6259 34.1771 38.2631 34.1771 38.9586V41.4021C34.1771 42.0195 34.6399 42.5973 35.4143 42.9467L37.0196 43.6711C37.7765 44.0126 38.2362 44.5727 38.2562 45.1759C38.3008 46.5204 38.4664 49.1281 39.0706 51.9685C40.4207 58.3156 48.4443 63.1379 58.1808 63.4863C62.1594 63.6287 66.743 63.6719 71.4527 63.4704C77.9266 63.1935 83.3388 60.135 84.7025 55.9662C85.299 54.1432 85.8404 51.9873 86.1666 49.5535C86.335 48.2967 87.932 47.3312 89.8517 47.3312C91.7714 47.3312 93.3684 48.2967 93.5368 49.5535Z" fill="#FFC200"/>
<path d="M79.7165 40.1939C81.6551 40.6368 82.8769 41.8961 82.6719 43.2383C82.0413 47.3677 81.1317 51.332 79.9593 55.2961C79.5141 56.6554 78.4315 57.8536 76.8274 58.7616C75.2227 59.6696 73.2553 60.1978 71.1375 60.2883C69.1149 60.3748 66.9849 60.4186 64.8065 60.4186C62.7444 60.4186 60.6042 60.3795 58.4445 60.3022C54.8505 60.1734 51.4106 59.2232 48.7584 57.626C46.1063 56.0288 44.3723 53.8631 43.8757 51.5269C43.3489 47.8743 43.0871 43.9526 42.9573 41.0659C42.8949 39.679 44.3298 38.4545 46.387 38.1433C49.3377 37.6969 52.9465 37.366 57.1623 37.366C64.2211 37.366 68.7515 38.1142 73.5488 38.9062C75.102 39.1629 77.6563 39.7233 79.7165 40.1939Z" fill="#21273F"/>
<path d="M99.9866 40.1939C98.048 40.6368 96.8262 41.8961 97.0311 43.2383C97.6618 47.3677 98.5714 51.332 99.7438 55.2961C100.189 56.6554 101.272 57.8536 102.876 58.7616C104.48 59.6696 106.448 60.1978 108.566 60.2883C110.588 60.3748 112.718 60.4186 114.897 60.4186C116.959 60.4186 119.099 60.3795 121.259 60.3022C124.853 60.1734 128.293 59.2232 130.945 57.626C133.597 56.0288 135.331 53.8631 135.827 51.5269C136.354 47.8743 136.616 43.9526 136.746 41.0659C136.808 39.679 135.373 38.4545 133.316 38.1433C130.365 37.6969 126.757 37.366 122.541 37.366C115.482 37.366 110.952 38.1142 106.154 38.9062C104.601 39.1629 102.047 39.7233 99.9866 40.1939Z" fill="#21273F"/>
<path d="M65.7551 37.7912L46.3569 55.7884C45.0956 54.5527 44.2509 53.1422 43.9054 51.6594L59.2857 37.3896C61.6984 37.4438 63.8086 37.5897 65.7551 37.7912Z" fill="#474F68"/>
<path d="M72.0146 38.6543L50.7123 58.626C50.0242 58.3285 49.3702 57.9942 48.7587 57.6259C48.3184 57.3609 47.904 57.0805 47.5161 56.7857L67.5506 37.9978C69.0951 38.192 70.556 38.4175 72.0146 38.6543Z" fill="#474F68"/>
<path d="M128.576 37.6013L105.021 59.6837C104.254 59.4434 103.534 59.1347 102.876 58.7618C102.443 58.5169 102.048 58.2507 101.694 57.966L123.653 37.3738C125.407 37.3982 127.049 37.4794 128.576 37.6013Z" fill="#474F68"/>
<path d="M121.339 37.3734L100.485 56.7207C100.156 56.2719 99.9069 55.7949 99.7438 55.2963C99.4077 54.1593 99.0928 53.0223 98.8003 51.8811L113.992 37.7866C116.171 37.5622 118.555 37.4082 121.339 37.3734Z" fill="#474F68"/>
</svg>
