<svg width="188" height="151" viewBox="0 0 188 151" fill="none" xmlns="http://www.w3.org/2000/svg">
<path d="M38.5874 72.0986C38.5874 54.9778 52.4666 41.0986 69.5874 41.0986H115.227C132.347 41.0986 146.227 54.9778 146.227 72.0986V75.489C146.227 97.0281 128.766 114.489 107.227 114.489H78.5874C56.496 114.489 38.5874 96.5804 38.5874 74.489V72.0986Z" fill="#9BC1BC"/>
<path d="M54.244 74.3689C54.244 66.8029 60.3775 60.6694 67.9436 60.6694H116.87C124.437 60.6694 130.57 66.8029 130.57 74.3689C130.57 79.7732 126.189 84.1543 120.785 84.1543H64.0294C58.6251 84.1543 54.244 79.7732 54.244 74.3689Z" fill="#17282D"/>
<path d="M126.8 39.2834C131.555 34.8739 146.862 43.6509 160.99 58.8861C175.118 74.1212 182.715 90.0471 177.96 94.4566C173.206 98.866 157.898 90.0891 143.771 74.8539C129.643 59.6188 122.046 43.6929 126.8 39.2834Z" fill="#36C9C6"/>
<g opacity="0.5">
<path d="M146.26 72.8119C133.422 58.967 125.979 44.557 128.294 38.7306C127.693 38.9181 127.168 39.2086 126.734 39.611C121.979 44.0205 129.577 59.9451 143.704 75.1815C157.832 90.4179 173.139 99.1936 177.894 94.7841C178.328 94.3817 178.657 93.8812 178.89 93.295C172.906 95.1645 159.097 86.6555 146.26 72.8119Z" fill="#5D7077"/>
</g>
<path d="M55.5184 41.9983C51.4231 37.8095 37.2234 45.0526 23.8029 58.1751C10.3824 71.2976 2.82367 85.3318 6.91892 89.5205C11.0142 93.7093 25.2139 86.4662 38.6344 73.3437C52.0549 60.2212 59.6136 46.187 55.5184 41.9983Z" fill="#36C9C6"/>
<g opacity="0.5">
<path d="M36.4787 71.3911C48.6736 59.4661 56.0261 46.7928 54.1952 41.4334C54.7294 41.6292 55.1895 41.9144 55.5637 42.2967C59.659 46.4855 52.1001 60.5185 38.6798 73.6422C25.2594 86.7658 11.0595 94.0078 6.96427 89.819C6.59002 89.4367 6.3155 88.9705 6.13169 88.4314C11.4483 90.3826 24.2836 83.315 36.4787 71.3911Z" fill="#5D7077"/>
</g>
<path d="M125.543 84.6436C125.543 84.6436 127.5 82.6865 130.436 90.0255C132.583 95.3948 119.576 93.7379 113.8 93.4504C108.025 93.1629 92.8962 97.3646 92.8962 97.3646C92.8962 97.3646 78.7074 94.9182 71.8576 93.4504C65.0078 91.9826 50.3296 95.4075 53.1309 90.0255C55.9322 84.6436 58.5127 84.6436 58.5127 84.6436H125.543Z" fill="#CCE5E1"/>
<path d="M99.0681 97.1758C99.0681 98.9628 96.0435 100.412 92.3126 100.412C88.5817 100.412 85.5571 98.9628 85.5571 97.1758C85.5571 95.3887 88.5817 93.9397 92.3126 93.9397C96.0435 93.9397 99.0681 95.3887 99.0681 97.1758Z" fill="#9B2927"/>
<path d="M100.621 75.5559C100.204 75.5559 99.7944 75.3659 99.5261 75.0064C99.0775 74.4021 99.202 73.5488 99.8063 73.1001L105.632 68.7671C106.128 68.399 106.81 68.4086 107.292 68.7929L112.754 73.127C113.343 73.5949 113.442 74.4514 112.974 75.0418C112.506 75.6321 111.65 75.7298 111.06 75.2618L106.418 71.5792L101.431 75.2876C101.189 75.4679 100.904 75.5559 100.621 75.5559Z" fill="#E6EDEF"/>
<path d="M73.2217 75.5559C72.8053 75.5559 72.3953 75.3659 72.1269 75.0064C71.6783 74.4021 71.8028 73.5488 72.4071 73.1001L78.2331 68.7671C78.7289 68.399 79.4105 68.4086 79.8924 68.7929L85.3545 73.127C85.9438 73.5949 86.0425 74.4514 85.5746 75.0418C85.1066 75.6321 84.2512 75.7298 83.6609 75.2618L79.0187 71.5792L74.0321 75.2876C73.7895 75.4679 73.5051 75.5559 73.2217 75.5559Z" fill="#E6EDEF"/>
<path d="M113.111 116.956C112.551 112.41 108.387 109.04 103.839 108.656C99.137 108.259 95.0233 111.011 93.3547 115.04C91.7298 111.117 87.787 108.405 83.2406 108.631C78.132 108.886 73.8899 112.964 73.4333 118.077C73.2045 120.634 73.9031 123.018 75.2226 124.938L75.22 124.939L75.2297 124.948C76.0865 126.192 77.2092 127.234 78.5114 128.004L92.9854 141.484C94.1248 142.545 94.9588 143.915 95.2769 145.441C95.698 147.462 95.319 149.9 91.3651 150.448C91.2108 150.469 91.2215 150.695 91.3772 150.695C95.9237 150.676 116.626 145.524 113.111 116.956Z" fill="#E3E3E3"/>
<path d="M100.699 102.237L100.698 102.239C99.7565 101.343 98.4817 100.789 97.0752 100.789C95.0347 100.789 93.2705 101.95 92.4033 103.642C91.5362 101.95 89.772 100.789 87.7315 100.789C86.093 100.789 84.631 101.537 83.6695 102.707C82.7342 103.845 81.6582 104.87 80.3677 105.588C67.4876 112.756 62.6266 100.789 62.6266 100.789C64.3468 120.096 88.8484 111.217 88.8484 111.217L88.804 111.108C90.3794 110.782 91.6921 109.751 92.4029 108.365C93.27 110.057 118.167 122.667 123.296 100.789C123.296 100.789 117.232 115.724 100.699 102.237Z" fill="white"/>
<path d="M126.734 38.1562H59.9509C58.1862 38.1562 56.7554 39.5871 56.7554 41.3518V49.5525C56.7554 51.3172 58.1862 52.7481 59.9509 52.7481H126.734C128.498 52.7481 129.929 51.3172 129.929 49.5525V41.3518C129.929 39.5871 128.498 38.1562 126.734 38.1562Z" fill="#EAF7FF"/>
<path d="M62.6902 38.1562C62.6902 38.1562 66.3731 -6.25765 119.472 0.749852C138.596 3.27372 154.018 17.9858 157.025 37.0397C157.083 37.4083 157.138 37.7803 157.189 38.1562H145.499C145.499 38.1562 143.607 34.8766 140.908 31.6909C135.217 24.9737 124.106 28.7412 123.854 37.5413C123.848 37.7427 123.845 37.9475 123.845 38.1562H62.6902Z" fill="#BF4532"/>
<path d="M158.749 39.6392C159.571 34.8735 156.373 30.3441 151.607 29.5225C146.842 28.7009 142.312 31.8982 141.491 36.6639C140.669 41.4297 143.866 45.9591 148.632 46.7807C153.398 47.6023 157.927 44.405 158.749 39.6392Z" fill="#EFFEFF"/>
</svg>
