<svg width="157" height="74" viewBox="0 0 157 74" fill="none" xmlns="http://www.w3.org/2000/svg">
<path d="M52.245 7.3787C49.0049 2.91557 34.8312 7.74834 20.5874 18.1718C6.34353 28.5964 -2.57615 40.6652 0.665073 45.1283C3.9052 49.5914 18.0788 44.7586 32.3227 34.3352C46.5665 23.9117 55.4851 11.8418 52.245 7.3787Z" fill="#36C9C6"/>
<g opacity="0.5">
<path d="M49.6007 6.16C50.4441 11.4469 41.9292 22.1928 29.074 31.6006C17.3167 40.2055 5.61432 44.9933 0.0620117 43.8953C0.153051 44.4668 0.350489 44.9757 0.666385 45.4112C3.90651 49.8743 18.0802 45.0415 32.324 34.6181C46.5678 24.1946 55.4875 12.1247 52.2474 7.6616C51.6792 6.88283 50.7743 6.39254 49.6007 6.16Z" fill="#5D7077"/>
</g>
<path d="M103.188 73.9374C86.7446 73.6917 70.3575 72.3765 54.1228 70.0029C47.0316 68.9664 38.9785 63.9702 37.3244 56.5082C35.5486 48.4979 43.3154 41.7609 40.9594 32.974C38.9675 25.5439 37.6875 20.812 42.0376 14.1354C45.7702 8.40868 50.6666 4.43804 57.8708 4.1386C71.5509 3.71302 85.1651 2.39788 98.6368 0.204162C107.137 -1.25247 114.871 5.23656 116.003 15.2048C117.431 28.7445 118.861 42.2852 120.289 55.8249C121.423 65.7789 113.753 74.1677 103.188 73.9374Z" fill="#9BC1BC"/>
<path d="M128.686 54.3233C130.389 52.4971 132.829 48.7129 132.072 42.4805L129.025 17.3975C129.025 15.2784 127.295 13.3062 125.589 12.1655C125.589 12.1655 118.221 6.78646 118.152 6.736C112.376 2.51857 110.41 11.5775 110.324 15.5087C110.143 23.7088 114.077 31.4998 113.477 39.8261C112.946 47.1981 107.338 52.5596 105.772 59.5652C104.524 65.1483 109.749 75.1999 116.115 68.8754L119.168 65.2272L128.686 54.3233Z" fill="#7E9A9E"/>
<path d="M104.631 1.68163C107.835 -2.77601 122.011 1.93391 136.293 12.2005C150.575 22.4672 159.555 34.4043 156.352 38.8619C153.148 43.3196 138.972 38.6097 124.69 28.343C110.407 18.0764 101.427 6.13928 104.631 1.68163Z" fill="#36C9C6"/>
<g opacity="0.5">
<path d="M126.412 26.2304C113.434 16.9005 104.836 6.19518 105.777 0.971924C105.31 1.22859 104.924 1.55765 104.631 1.96458C101.427 6.42223 110.407 18.3583 124.69 28.626C138.972 38.8937 153.148 43.6025 156.352 39.1449C156.644 38.738 156.833 38.2674 156.927 37.742C152.277 40.2988 139.39 35.5593 126.412 26.2304Z" fill="#5D7077"/>
</g>
<g opacity="0.5">
<path d="M41.2827 38.2686L113.477 39.8273L110.598 48.7141L39.2217 45.3982L41.2827 38.2686Z" fill="#CCE5E1"/>
</g>
<path d="M74.4915 47.3221C74.4915 49.1484 71.4005 50.6291 67.5878 50.6291C63.7752 50.6291 60.6842 49.1484 60.6842 47.3221C60.6842 45.4958 63.7752 44.015 67.5878 44.015C71.4005 44.015 74.4915 45.4958 74.4915 47.3221Z" fill="#9B2927"/>
<path d="M49.356 38.4429C49.356 38.4429 44.5583 25.7774 47.9224 20.2723C51.2865 14.7661 49.356 16.5112 49.356 16.5112L96.306 14.3021C96.306 14.3021 99.2643 13.7109 99.4091 20.2723C99.5539 26.8337 99.4091 39.5233 99.4091 39.5233L49.356 38.4429Z" fill="#17282D"/>
</svg>
