<svg width="177" height="120" viewBox="0 0 177 120" fill="none" xmlns="http://www.w3.org/2000/svg">
<path d="M36.3198 80.8176C36.3198 64.1603 49.8232 50.6569 66.4805 50.6569H107.042C123.937 50.6569 137.634 64.3532 137.634 81.2485C137.634 102.504 120.403 119.735 99.1476 119.735H75.2368C53.7435 119.735 36.3198 102.311 36.3198 80.8176Z" fill="#9BC1BC"/>
<path d="M51.0563 81.9722C51.0563 74.8507 56.8293 69.0777 63.9508 69.0777H110.003C117.124 69.0777 122.897 74.8507 122.897 81.9722C122.897 87.0589 118.773 91.1825 113.687 91.1825H60.2666C55.1799 91.1825 51.0563 87.0589 51.0563 81.9722Z" fill="#17282D"/>
<path d="M119.349 48.9485C123.824 44.7981 138.232 53.0593 151.53 67.3992C164.827 81.739 171.978 96.729 167.503 100.879C163.027 105.03 148.62 96.7685 135.322 82.4286C122.025 68.0888 114.874 53.0988 119.349 48.9485Z" fill="#36C9C6"/>
<g opacity="0.5">
<path d="M137.665 80.5066C125.582 67.4754 118.576 53.9122 120.755 48.4281C120.189 48.6046 119.696 48.878 119.287 49.2568C114.811 53.4072 121.963 68.3959 135.26 82.737C148.557 97.0781 162.965 105.338 167.44 101.188C167.849 100.809 168.159 100.338 168.377 99.7861C162.745 101.546 149.748 93.5367 137.665 80.5066Z" fill="#5D7077"/>
</g>
<path d="M52.256 51.5037C48.4014 47.5611 35.0361 54.3786 22.4042 66.7299C9.77238 79.0812 2.65784 92.2907 6.51244 96.2333C10.367 100.176 23.7323 93.3585 36.3642 81.0071C48.9961 68.6558 56.1106 55.4463 52.256 51.5037Z" fill="#36C9C6"/>
<g opacity="0.5">
<path d="M34.3354 79.1693C45.8137 67.9451 52.7341 56.0165 51.0109 50.972C51.5136 51.1563 51.9467 51.4247 52.2989 51.7846C56.1535 55.7272 49.0388 68.9356 36.4071 81.288C23.7754 93.6405 10.41 100.457 6.55537 96.5143C6.20311 96.1544 5.94473 95.7156 5.77172 95.2082C10.7759 97.0448 22.8569 90.3925 34.3354 79.1693Z" fill="#5D7077"/>
</g>
<path d="M118.165 91.6431C118.165 91.6431 120.007 89.801 122.77 96.7088C124.792 101.763 112.549 100.203 107.113 99.9324C101.677 99.6618 87.4371 103.617 87.4371 103.617C87.4371 103.617 74.0821 101.314 67.6348 99.9324C61.1876 98.5508 47.3719 101.774 50.0086 96.7088C52.6453 91.6431 55.0741 91.6431 55.0741 91.6431H118.165Z" fill="#CCE5E1"/>
<path d="M93.2465 103.439C93.2465 105.121 90.3997 106.485 86.888 106.485C83.3764 106.485 80.5295 105.121 80.5295 103.439C80.5295 101.757 83.3764 100.393 86.888 100.393C90.3997 100.393 93.2465 101.757 93.2465 103.439Z" fill="#9B2927"/>
<path d="M94.7078 83.0893C94.3159 83.0893 93.93 82.9105 93.6774 82.5721C93.2551 82.0033 93.3723 81.2002 93.9411 80.7779L99.4247 76.6995C99.8914 76.353 100.533 76.3621 100.987 76.7238L106.128 80.8031C106.682 81.2436 106.775 82.0498 106.335 82.6054C105.894 83.1611 105.089 83.253 104.534 82.8125L100.164 79.3464L95.4706 82.8368C95.2423 83.0065 94.9745 83.0893 94.7078 83.0893Z" fill="#E6EDEF"/>
<path d="M68.9188 83.0893C68.5268 83.0893 68.1409 82.9105 67.8883 82.5721C67.4661 82.0033 67.5832 81.2002 68.152 80.7779L73.6356 76.6995C74.1024 76.353 74.7439 76.3621 75.1975 76.7238L80.3386 80.8031C80.8933 81.2436 80.9862 82.0498 80.5457 82.6054C80.1053 83.1611 79.3001 83.253 78.7445 82.8125L74.3751 79.3464L69.6815 82.8368C69.4532 83.0065 69.1855 83.0893 68.9188 83.0893Z" fill="#E6EDEF"/>
<path d="M87.0378 13.2726V0H85.6717C85.0249 0 84.5008 0.524157 84.5008 1.17095C84.5008 3.35786 83.632 11.01 82.0857 12.5562L81.3694 13.2726H87.0378Z" fill="#00CCA7"/>
<path d="M87.0378 13.2726V0H88.4039C89.0507 0 89.5748 0.524157 89.5748 1.17095C89.5748 3.35786 90.4436 11.01 91.9899 12.5562L92.7062 13.2726H87.0378Z" fill="#00A18D"/>
<path d="M64.2559 60.1235C58.2715 60.1235 53.42 55.2721 53.42 49.2876V25.9489C53.42 19.9644 58.2715 15.113 64.2559 15.113C70.2404 15.113 75.0918 19.9644 75.0918 25.9489V49.2876C75.0918 55.2721 70.2404 60.1235 64.2559 60.1235Z" fill="#D04600"/>
<path d="M109.82 15.1133C115.804 15.1133 120.656 19.9647 120.656 25.9492V49.288C120.656 55.2724 115.804 60.1238 109.82 60.1238C103.835 60.1238 98.9839 55.2724 98.9839 49.288V25.9492C98.9842 19.9644 103.835 15.1133 109.82 15.1133Z" fill="#D04600"/>
<path d="M73.881 62.4457C67.2792 62.4457 61.9272 57.0937 61.9272 50.4919V24.7449C61.9272 18.1431 67.2792 12.7912 73.881 12.7912C80.4829 12.7912 85.8348 18.1431 85.8348 24.7449V50.4919C85.8351 57.0937 80.4832 62.4457 73.881 62.4457Z" fill="#A52100"/>
<path d="M100.194 12.7912C106.797 12.7912 112.148 18.1431 112.148 24.7449V50.4919C112.148 57.0938 106.796 62.4457 100.194 62.4457C93.5927 62.4457 88.2407 57.0938 88.2407 50.4919V24.7449C88.2404 18.1431 93.5927 12.7912 100.194 12.7912Z" fill="#A52100"/>
<path d="M87.0378 64.7704C79.8176 64.7704 73.9645 58.9173 73.9645 51.6971V23.5397C73.9645 16.3195 79.8176 10.4664 87.0378 10.4664C94.2579 10.4664 100.111 16.3195 100.111 23.5397V51.6971C100.111 58.9173 94.2579 64.7704 87.0378 64.7704Z" fill="#D04600"/>
<path opacity="0.3" d="M109.82 53.7378C109.051 53.7378 108.301 53.6563 107.577 53.5042C105.544 55.1035 102.982 56.06 100.195 56.06C98.579 56.06 97.0392 55.7377 95.6334 55.1569C93.3348 57.1652 90.3296 58.3847 87.0378 58.3847C83.7459 58.3847 80.7404 57.1652 78.4422 55.1569C77.0366 55.7377 75.4968 56.06 73.8813 56.06C71.0939 56.06 68.5316 55.1032 66.4987 53.5042C65.775 53.6566 65.0249 53.7378 64.2562 53.7378C58.2717 53.7378 53.4203 48.8864 53.4203 42.9019V49.2879C53.4203 55.2724 58.2717 60.1238 64.2562 60.1238C65.0253 60.1238 65.7753 60.0423 66.4987 59.8902C68.5316 61.4896 71.0939 62.446 73.8813 62.446C75.4968 62.446 77.0366 62.1237 78.4422 61.5429C80.7407 63.5513 83.7459 64.7707 87.0378 64.7707C90.3296 64.7707 93.3348 63.5513 95.6334 61.5429C97.0392 62.1237 98.579 62.446 100.195 62.446C102.982 62.446 105.544 61.4892 107.577 59.8902C108.301 60.0426 109.051 60.1238 109.82 60.1238C115.804 60.1238 120.656 55.2724 120.656 49.2879V42.9019C120.656 48.8864 115.804 53.7378 109.82 53.7378Z" fill="#201642"/>
<path d="M78.1865 22.999L82.4846 21.0651" stroke="#201642" stroke-width="3.8746" stroke-miterlimit="10" stroke-linecap="round"/>
<path d="M95.8889 22.999L91.5908 21.0651" stroke="#201642" stroke-width="3.8746" stroke-miterlimit="10" stroke-linecap="round"/>
<path d="M97.6592 40.4895L92.5596 34.426L87.219 40.4895L81.9586 34.426L76.8992 40.4895L71.3916 34.7933C71.7514 43.1252 78.6176 49.77 87.0381 49.77C95.447 49.77 102.307 43.1433 102.684 34.8269L97.6592 40.4895Z" fill="#201642"/>
<path d="M75.6178 33.1515C75.9524 32.6212 76.3267 32.1307 76.6988 31.6376C77.0812 31.1552 77.4643 30.6734 77.8652 30.2094C78.6654 29.2795 79.4998 28.3843 80.3644 27.5188L80.8083 27.0742L81.2503 27.5188C81.6816 27.9523 82.108 28.3907 82.5251 28.8389C82.9412 29.2876 83.3521 29.7416 83.7507 30.2081C84.1519 30.6718 84.5347 31.1539 84.9171 31.6366C85.2886 32.1301 85.6629 32.6206 85.9968 33.1515C85.4656 32.8176 84.9754 32.4433 84.4816 32.0718C83.9992 31.6894 83.5171 31.3066 83.0531 30.9054C82.5865 30.5071 82.1326 30.0959 81.6838 29.6798C81.2357 29.2627 80.7973 28.8363 80.3637 28.405H81.2499C80.3844 29.2695 79.4891 30.104 78.5592 30.9041C78.0953 31.305 77.6135 31.6881 77.1311 32.0705C76.6386 32.4426 76.1481 32.817 75.6178 33.1515Z" fill="#201642"/>
<path d="M88.0782 33.1515C88.4128 32.6212 88.7872 32.1307 89.1592 31.6376C89.5417 31.1552 89.9248 30.6734 90.3257 30.2094C91.1255 29.2795 91.9603 28.3842 92.8248 27.5187L93.2691 27.0742L93.711 27.5187C94.1423 27.9523 94.5688 28.3907 94.9858 28.8388C95.4019 29.2876 95.8132 29.7416 96.2115 30.2081C96.613 30.6718 96.9955 31.1539 97.3782 31.6366C97.7497 32.1301 98.1243 32.6206 98.4579 33.1515C97.9267 32.8176 97.4365 32.4433 96.9427 32.0718C96.4603 31.6894 95.9779 31.3066 95.5142 30.9054C95.0476 30.5071 94.594 30.0959 94.1449 29.6798C93.6968 29.2627 93.2584 28.8363 92.8248 28.405H93.711C92.8455 29.2695 91.9506 30.1039 91.0203 30.9041C90.5564 31.305 90.0746 31.6881 89.5922 32.0705C89.0991 32.4426 88.6086 32.817 88.0782 33.1515Z" fill="#201642"/>
</svg>
