<svg width="33" height="42" viewBox="0 0 33 42" fill="none" xmlns="http://www.w3.org/2000/svg">
<path d="M32.0239 29.8397C32.0436 37.6562 23.5212 41.7899 15.4268 41.3582C5.42338 40.8243 0.735948 35.0237 0.0652198 28.2782C-0.482384 22.7725 2.50898 17.4758 5.63938 14.4775C5.5301 15.6768 5.6452 16.9505 6.35985 17.9585C7.07425 18.9668 8.51922 19.606 9.73909 19.1708C11.286 18.6189 11.7104 16.7238 11.3072 15.2434C10.9039 13.7629 9.9344 12.4522 9.54477 10.9686C8.91212 8.55779 9.93111 5.96012 11.6955 4.08474C13.46 2.20937 15.8858 0.963213 18.3707 0C16.8765 1.61125 16.6785 4.12859 17.9051 5.92089C19.0768 7.63309 21.2235 8.52203 22.885 9.84758C25.6798 12.0776 27.0266 15.9808 25.4443 19.0566C25.0174 19.8866 24.4057 20.6275 23.9784 21.4572C23.5512 22.287 23.32 23.2709 23.7021 24.1192C24.0842 24.9675 25.2533 25.5408 26.133 25.1065C27.1502 24.6047 27.1656 23.1054 26.5822 21.6559C30.0414 22.8489 32.0153 26.4111 32.0239 29.8397Z" fill="#D33D3D"/>
<path d="M26.1533 35.6232C24.9143 37.8816 22.6859 39.6243 20.1397 40.5812C19.8708 40.6823 19.5986 40.7748 19.3237 40.8592C16.5526 41.7092 13.5125 41.4788 10.9691 40.1575C9.06734 39.1696 7.31905 37.5337 6.20767 34.7594C5.0535 31.8779 5.71174 27.8231 7.47995 25.3659C7.49277 26.5907 8.92217 27.5339 10.2471 27.4119C11.5723 27.2902 12.6762 26.3356 13.2248 25.2196C13.7734 24.1036 13.855 22.8444 13.8443 21.6195C13.834 20.3946 13.7407 19.1592 13.9712 17.9529C14.2014 16.7466 15.0018 14.8446 16.3339 13.7631C15.0941 15.9897 16.1056 18.1791 17.3651 20.0248C18.6246 21.8705 20.2459 22.5139 21.1003 25.6703C21.6997 27.885 20.4893 30.0069 22.9102 30.6007C24.777 31.0586 26.2303 29.0527 26.1381 27.885C27.2723 30.1895 27.3922 33.3647 26.1533 35.6232Z" fill="#FF884D"/>
<path d="M20.6942 39.2351C19.5889 40.6378 18.1141 41.4189 15.607 41.3263C13.019 41.2307 11.4742 39.8878 10.3982 38.0215C9.44458 36.3673 9.31212 34.2852 9.76228 32.5116C10.5996 33.9739 11.7354 34.5686 13.2852 34.761C11.7971 32.3419 13.0421 28.0159 16.4576 25.7256C15.7758 26.7025 15.9164 27.9438 16.4787 28.9693C17.041 29.9946 17.9748 30.8516 18.8866 31.6969C19.7983 32.542 20.7174 33.4133 21.2393 34.4525C22.0132 35.9935 21.7998 37.8327 20.6942 39.2351Z" fill="#FFCF57"/>
</svg>
