<svg width="24" height="37" viewBox="0 0 24 37" fill="none" xmlns="http://www.w3.org/2000/svg">
<path opacity="0.2" d="M11.7646 36.8314C16.6946 36.8314 20.6912 35.3281 20.6912 33.4737C20.6912 31.6192 16.6946 30.1159 11.7646 30.1159C6.83467 30.1159 2.83813 31.6192 2.83813 33.4737C2.83813 35.3281 6.83467 36.8314 11.7646 36.8314Z" fill="#525765"/>
<path d="M11.7641 0C5.26712 0 0 5.26678 0 11.7641C0 18.2612 11.7641 33.4737 11.7641 33.4737C11.7641 33.4737 23.5283 18.2612 23.5283 11.7641C23.5283 5.26678 18.2618 0 11.7641 0ZM11.7641 18.0202C8.30969 18.0202 5.50779 15.2189 5.50779 11.7641C5.50779 8.30901 8.30935 5.5078 11.7641 5.5078C15.2193 5.5078 18.0205 8.30901 18.0205 11.7641C18.0205 15.2193 15.2196 18.0202 11.7641 18.0202Z" fill="#FF5CBE"/>
<path opacity="0.1" d="M14.1453 30.2377C17.5828 25.407 23.5283 16.3835 23.5283 11.7641C23.5283 5.26678 18.2619 0 11.7642 0C11.7298 0 11.6958 0.00238136 11.6614 0.00272177V5.51324C11.6961 5.5129 11.7295 5.50814 11.7642 5.50814C15.2193 5.50814 18.0205 8.30935 18.0205 11.7645C18.0205 15.2196 15.2197 18.0205 11.7642 18.0205C11.7298 18.0205 11.6961 18.0157 11.6614 18.0154V36.8307C11.6954 36.8307 11.7295 36.8318 11.7642 36.8318C16.694 36.8318 20.6907 35.3285 20.6907 33.474C20.6907 31.9296 17.9187 30.6299 14.1453 30.2377Z" fill="black"/>
</svg>
