<svg width="55" height="36" viewBox="0 0 55 36" fill="none" xmlns="http://www.w3.org/2000/svg">
<path d="M13.7775 20.2848C13.7775 20.2848 19.7081 11.2606 20.1715 10.7257C22.364 8.19603 24.6508 1.11962 24.6508 1.11962C24.8764 0.346232 28.2033 -0.0492666 28.6623 2.74674C29.0519 5.11753 28.0606 7.12217 27.4592 9.43462C26.9364 11.4459 27.2986 15.2875 27.2986 15.2875C27.2986 15.2875 27.7682 30.6044 17.829 28.1984C7.88979 25.7924 13.7775 20.2848 13.7775 20.2848Z" fill="#E3B592"/>
<path d="M21.4809 15.081C21.4809 15.081 52.5073 15.657 53.2991 15.8008C54.0908 15.945 55.2428 16.8086 54.9548 18.6805C54.6672 20.5519 52.9259 20.3777 52.3859 20.4136C51.8462 20.4496 33.7802 20.8095 33.7802 20.8095C33.7802 20.8095 15.7942 21.4878 21.4809 15.081Z" fill="#E3B592"/>
<path d="M47.0485 23.4826C47.0485 25.0374 45.7883 26.2976 44.2338 26.2976H35.9368C34.3819 26.2976 33.122 25.0374 33.122 23.4826C33.122 21.9281 34.3823 20.6678 35.9368 20.6678H44.2338C45.7883 20.6675 47.0485 21.9281 47.0485 23.4826Z" fill="#E3B592"/>
<path d="M45.705 28.8463C45.705 30.2541 44.5636 31.3951 43.1559 31.3951H35.6433C34.2355 31.3951 33.0945 30.2541 33.0945 28.8463C33.0945 27.4386 34.2355 26.2972 35.6433 26.2972H43.1559C44.5636 26.2972 45.705 27.439 45.705 28.8463Z" fill="#E3B592"/>
<path d="M44.4169 33.5245C44.4169 34.7003 43.4633 35.6538 42.2875 35.6538H36.0123C34.8365 35.6538 33.8833 34.7003 33.8833 33.5245C33.8833 32.3486 34.8365 31.3954 36.0123 31.3954H42.2875C43.4633 31.3951 44.4169 32.3486 44.4169 33.5245Z" fill="#E3B592"/>
<path d="M13.1006 21.0633L13.4462 32.6828C13.4462 32.6828 18.1441 35.6538 19.5493 35.6538C20.9541 35.6538 41.1322 35.6538 41.1322 35.6538V19.1152L25.1046 16.3052L13.1006 21.0633Z" fill="#E3B592"/>
<path d="M16.4788 18.9335H3.62222V33.0251H16.4788V18.9335Z" fill="#E3B592"/>
<path d="M11.5711 16.7591H0V34.8056H11.5711V16.7591Z" fill="#494A70"/>
<path d="M51.1289 16.7786C50.783 16.9099 50.7129 17.1807 50.7422 17.5641C50.7727 17.9474 50.6502 19.4817 50.8717 19.5067C51.585 19.587 53.8435 19.773 54.199 18.4915C54.5545 17.2096 53.5078 16.78 53.1527 16.7195C53.0591 16.703 51.3116 16.7092 51.1289 16.7786Z" fill="#FAC7A0"/>
<path d="M23.4236 4.49792C23.4236 4.49792 24.2201 4.94038 24.7245 4.34419C25.229 3.74801 25.871 1.24845 25.6648 1.06501C25.4583 0.881566 24.7271 0.980625 24.7271 0.980625L23.4236 4.49792Z" fill="#FAC7A0"/>
</svg>
