<svg width="718" height="60" viewBox="0 0 718 60" fill="none" xmlns="http://www.w3.org/2000/svg">
<path d="M56.3565 20.885C45.0825 16.7071 48.0787 0 60.1019 0H698C709.046 0 718 8.95431 718 20V40C718 51.0457 709.046 60 698 60H61.3005C49.9629 60 47.3711 44.1168 58.1205 40.5125C67.0683 37.5124 67.2658 24.9279 58.4165 21.6485L56.3565 20.885Z" fill="#FF8B43"/>
<path d="M265.972 21.1195C255.721 15.5642 259.667 0 271.326 0H698C709.046 0 718 8.95431 718 20V40C718 51.0457 709.046 60 698 60H271.657C260.682 60 257.243 45.1719 267.096 40.3405C274.653 36.6353 274.871 25.9423 267.471 21.9323L265.972 21.1195Z" fill="#FF6E14"/>
<path d="M405.512 21.531C396.495 14.4739 401.485 0 412.936 0H698C709.046 0 718 8.95431 718 20V40C718 51.0457 709.046 60 698 60H412.554C401.835 60 397.452 46.2265 406.201 40.0321C412.208 35.7783 412.42 26.9372 406.623 22.4005L405.512 21.531Z" fill="#FF5230"/>
</svg>
