<svg width="29" height="17" viewBox="0 0 29 17" fill="none" xmlns="http://www.w3.org/2000/svg">
<path fill-rule="evenodd" clip-rule="evenodd" d="M0.56998 6.98553L6.80024 0.637306C7.63419 -0.212437 8.94985 -0.212437 9.7838 0.637306C10.5732 1.48791 10.5732 2.87387 9.7838 3.67822L7.19535 6.4039L26.8941 6.4039C27.9912 6.4039 29 7.34273 29 8.50599C29 9.71294 27.9912 10.6518 26.8941 10.6518L7.19536 10.6518L9.7838 13.3346C10.5732 14.1835 10.5732 15.5249 9.7838 16.3755C9.34497 16.7773 8.86242 17 8.33616 17C7.76618 17 7.23992 16.7773 6.80024 16.3755L0.56998 10.0265C0.351404 9.80202 0.219415 9.62385 0.131144 9.3112C0.0437134 9.04308 -3.57581e-07 8.81951 -3.71247e-07 8.50685C-3.96634e-07 7.92608 0.175702 7.38813 0.56998 6.98553Z" fill="#727270"/>
</svg>
